<?xml version="1.0" standalone="no"?>
<!DOCTYPE svg PUBLIC "-//W3C//DTD SVG 20010904//EN"
 "http://www.w3.org/TR/2001/REC-SVG-20010904/DTD/svg10.dtd">
<svg version="1.0" xmlns="http://www.w3.org/2000/svg"
 width="1782.000000pt" height="1783.000000pt" viewBox="0 0 1782.000000 1783.000000"
 preserveAspectRatio="xMidYMid meet">

<g transform="translate(0.000000,1783.000000) scale(0.100000,-0.100000)"
fill="#000000" stroke="none">
<path d="M6815 16134 c-535 -53 -1049 -168 -1557 -348 -325 -116 -639 -269
-968 -474 -239 -148 -473 -335 -680 -542 -172 -171 -279 -302 -409 -499 -333
-508 -491 -1039 -491 -1656 0 -376 65 -739 200 -1115 114 -317 389 -796 650
-1132 113 -146 612 -640 821 -813 19 -17 114 -95 210 -176 96 -80 230 -190
299 -244 69 -54 166 -131 215 -170 233 -185 1054 -800 1438 -1079 391 -283
1298 -968 1562 -1180 372 -298 1083 -984 1344 -1296 344 -412 437 -572 531
-921 23 -85 45 -158 50 -162 13 -15 48 42 62 101 21 90 18 475 -4 577 -56 258
-236 594 -524 976 -155 207 -511 634 -653 784 -42 44 -152 163 -246 265 -93
102 -458 475 -810 830 -742 747 -886 904 -1276 1385 -620 765 -1041 1579
-1153 2230 -24 136 -39 466 -32 680 7 244 27 411 71 605 92 400 248 752 466
1047 105 143 341 374 457 447 50 32 92 59 92 61 0 1 -19 -1 -42 -6 -24 -4
-104 -12 -178 -18 -181 -15 -233 -24 -396 -70 -356 -101 -731 -293 -976 -500
-393 -331 -627 -752 -714 -1281 -72 -443 -72 -626 0 -1055 49 -294 188 -695
302 -876 14 -23 20 -41 14 -44 -19 -12 -49 6 -86 53 -20 26 -65 76 -100 112
-122 127 -296 337 -373 450 -200 293 -353 654 -428 1008 -33 159 -35 180 -40
422 -6 292 3 410 47 606 70 314 241 658 468 944 96 121 327 351 457 455 467
374 1123 668 1828 819 207 44 272 53 551 71 626 41 1109 -12 1601 -174 281
-92 521 -207 736 -351 138 -92 284 -201 321 -238 l21 -21 -34 -15 c-19 -8
-142 -35 -274 -61 -320 -62 -438 -106 -633 -234 -220 -145 -390 -362 -466
-592 -51 -157 -67 -262 -67 -430 0 -165 7 -214 62 -432 149 -596 562 -1134
1294 -1689 55 -41 154 -115 220 -164 354 -261 524 -435 946 -969 56 -71 118
-150 138 -175 160 -199 293 -402 509 -775 178 -310 306 -488 457 -641 161
-163 265 -217 421 -216 190 0 477 110 602 230 74 71 110 138 86 162 -19 19
-275 21 -449 2 -103 -11 -128 -10 -178 3 -226 59 -368 233 -715 875 -55 102
-123 227 -151 278 -28 52 -108 202 -178 335 -197 379 -356 650 -498 857 -165
237 -364 436 -735 733 -291 233 -400 326 -515 442 -123 123 -263 303 -342 442
-97 168 -170 392 -202 618 -12 79 -3 324 11 342 19 24 43 -4 56 -64 16 -69 90
-248 145 -353 64 -121 154 -247 236 -333 118 -124 225 -189 405 -246 120 -39
241 -54 576 -76 305 -20 612 -49 735 -70 285 -49 736 -170 1012 -271 51 -19
95 -34 99 -34 20 0 438 -163 604 -235 47 -20 112 -48 145 -62 87 -36 163 -72
410 -195 311 -155 526 -239 773 -302 196 -50 289 -61 522 -61 296 1 462 37
685 150 144 73 209 119 302 212 147 147 230 329 221 484 -8 135 -57 206 -248
357 -52 42 -191 155 -309 251 -118 97 -244 200 -280 229 -36 30 -144 122 -241
206 -797 694 -1397 1153 -2035 1558 -345 219 -542 326 -870 473 -720 322
-1927 684 -2820 844 -319 57 -776 115 -1042 131 -244 14 -896 11 -1068 -6z
m4009 -1490 c316 -93 482 -157 716 -273 217 -108 347 -187 534 -327 211 -158
379 -310 786 -711 184 -181 378 -366 430 -409 138 -116 436 -337 585 -437 139
-91 185 -128 185 -148 0 -22 -456 -5 -650 24 -91 14 -219 30 -285 36 -237 24
-472 52 -581 71 -127 22 -333 94 -474 165 -301 151 -613 452 -725 699 -38 84
-72 188 -79 241 -12 83 -56 314 -78 405 -56 233 -190 426 -410 589 -78 58
-102 85 -91 104 6 10 5 10 137 -29z m3903 -2581 c53 -42 104 -111 173 -233 62
-108 72 -140 44 -140 -8 0 -70 29 -137 64 -67 35 -185 87 -262 116 -77 30
-146 58 -152 63 -37 28 10 85 111 134 61 29 79 34 128 30 46 -2 65 -9 95 -34z"/>
<path d="M11626 13894 c-3 -9 -6 -75 -6 -146 0 -115 4 -146 31 -247 45 -172
109 -297 204 -399 43 -45 105 -104 139 -129 33 -26 63 -50 66 -53 14 -17 135
-92 217 -134 189 -97 382 -119 560 -64 102 31 153 55 153 71 0 15 -139 134
-463 394 -72 59 -162 132 -198 162 -36 31 -101 84 -145 118 -43 34 -88 70 -99
80 -11 10 -47 40 -80 68 -33 27 -94 79 -135 116 -95 83 -176 146 -211 164 -24
13 -28 13 -33 -1z"/>
<path d="M7676 11822 c-29 -48 -65 -427 -66 -699 0 -154 11 -232 66 -468 169
-724 451 -1407 874 -2120 125 -210 474 -716 633 -916 262 -330 626 -760 937
-1107 408 -455 610 -685 688 -783 470 -594 682 -1050 682 -1465 0 -185 -39
-348 -124 -511 -142 -275 -407 -509 -801 -708 -274 -138 -552 -227 -950 -305
-318 -61 -980 -66 -1418 -10 -229 29 -679 125 -915 195 -260 77 -622 218 -897
350 -414 197 -498 244 -503 283 -4 28 10 28 183 2 72 -10 180 -26 240 -35 61
-9 198 -29 305 -45 274 -41 487 -55 850 -55 371 0 671 17 865 51 77 13 154 25
170 27 17 2 -4 5 -45 6 -41 2 -82 4 -90 6 -52 11 -217 37 -350 55 -623 85
-1802 471 -2518 824 -434 215 -815 480 -1047 728 -219 235 -302 409 -293 609
7 154 78 257 246 358 169 101 320 149 572 181 149 19 207 21 395 17 334 -7
513 -29 905 -107 363 -73 586 -129 915 -230 527 -161 774 -257 1233 -482 34
-17 65 -29 67 -26 3 2 -61 70 -143 149 -410 403 -1035 765 -1782 1032 -347
123 -571 189 -870 256 -555 124 -979 142 -1410 60 -387 -74 -905 -251 -1172
-401 -264 -148 -505 -396 -623 -642 -135 -281 -191 -619 -150 -901 85 -583
411 -1082 1065 -1626 243 -202 376 -297 675 -485 477 -300 1061 -573 1735
-811 905 -320 1772 -522 2645 -617 635 -70 1695 -75 2184 -10 64 8 170 22 236
30 402 50 884 162 1265 295 663 230 1230 645 1558 1139 158 238 271 542 302
810 18 160 24 493 11 625 -42 410 -180 746 -514 1250 -147 222 -386 532 -480
623 l-45 44 -78 -18 c-44 -9 -124 -32 -179 -51 -136 -46 -411 -83 -613 -83
-137 0 -413 25 -542 50 -82 15 -307 78 -338 94 -34 18 -66 52 -58 64 3 5 81
12 173 16 197 8 381 27 583 62 182 31 249 49 457 124 175 64 223 87 223 107 0
6 -35 42 -77 80 -104 93 -187 168 -404 369 -197 183 -626 568 -691 621 l-38
31 -63 -14 c-34 -8 -105 -27 -157 -42 -92 -26 -102 -27 -345 -26 -233 1 -262
3 -430 33 -175 31 -385 89 -610 169 -132 46 -266 125 -247 144 4 4 95 3 202
-3 240 -14 719 -5 845 15 268 43 405 84 405 120 0 7 -38 47 -85 90 -156 142
-460 504 -625 745 -47 68 -99 142 -116 164 l-30 40 -195 2 c-285 3 -387 23
-831 166 -306 99 -633 273 -756 402 -54 58 -65 87 -33 87 11 0 113 -21 228
-46 382 -84 677 -143 783 -158 257 -37 352 -48 457 -53 l112 -6 -11 39 c-5 21
-29 80 -53 129 -46 99 -111 301 -120 380 -4 28 -11 73 -16 101 l-10 52 -207
107 c-676 351 -1008 572 -1303 865 -158 157 -265 287 -382 462 -85 127 -108
151 -121 130z"/>
<path d="M11323 11138 c84 -107 154 -224 287 -483 57 -110 106 -204 110 -210
13 -18 186 -397 240 -525 101 -238 183 -365 329 -509 80 -79 256 -217 359
-282 62 -38 282 -149 296 -149 19 0 333 -157 426 -213 94 -56 213 -141 275
-195 101 -89 282 -319 386 -492 83 -138 149 -335 149 -445 0 -60 15 -64 35
-11 14 36 17 83 19 243 l1 198 -37 120 c-20 66 -40 138 -43 160 -3 22 -45 118
-92 213 -47 94 -84 174 -82 176 2 2 73 -14 156 -35 169 -43 262 -84 403 -179
175 -118 328 -257 467 -426 43 -52 82 -94 87 -94 17 0 -4 77 -44 163 -142 302
-373 548 -686 728 -125 72 -384 202 -477 239 -43 17 -96 39 -117 50 -22 11
-52 20 -67 20 -15 0 -82 18 -148 40 -66 22 -160 51 -210 65 -196 57 -254 75
-360 114 -60 21 -146 56 -190 77 -220 102 -393 270 -525 512 -77 140 -275 473
-392 657 -45 72 -179 239 -221 278 -45 41 -161 127 -170 127 -4 0 -42 23 -85
50 -92 59 -115 64 -79 18z"/>
<path d="M13623 11068 c-4 -7 -53 -103 -108 -213 -144 -287 -321 -567 -454
-718 -28 -32 -51 -63 -51 -69 0 -12 76 -3 160 19 71 18 240 99 321 153 152
102 446 442 540 624 32 64 33 68 16 81 -18 13 -382 135 -404 135 -7 0 -15 -6
-20 -12z"/>
<path d="M15089 11035 c-3 -3 -66 -20 -140 -39 -160 -40 -239 -63 -257 -74 -7
-5 -26 -58 -42 -119 -58 -216 -171 -484 -301 -711 -23 -40 -40 -75 -37 -77 6
-7 228 87 293 124 160 92 338 339 438 611 50 135 80 319 46 285z"/>
</g>
</svg>
